<mxfile host="app.diagrams.net" modified="2024-07-08T09:20:56.348Z" agent="Mozilla/5.0 (Windows NT 10.0; Win64; x64) AppleWebKit/537.36 (KHTML, like Gecko) Chrome/127.0.0.0 Safari/537.36 Edg/127.0.0.0" version="24.6.4" etag="KWwFm4S15X_WeqJeHaEp" type="github">
  <diagram name="Page-1" id="8edeY_ad2c2uvn3HW1f-">
    <mxGraphModel>
      <root>
        <mxCell id="0" />
        <mxCell id="1" parent="0" />
      </root>
    </mxGraphModel>
  </diagram>
</mxfile>
